<?xml version="1.0" ?><svg fill="none" height="24" viewBox="0 0 24 24" width="24" xmlns="http://www.w3.org/2000/svg"><path clip-rule="evenodd" d="M1.56268 5.75762C1.65079 5.59864 1.81824 5.5 2 5.5H16C16.1832 5.5 16.3517 5.60016 16.4392 5.76106C16.5267 5.92196 16.5193 6.11784 16.4198 6.27163L11.0891 14.51L12.0125 16.049L18.5782 5.73156C18.6699 5.58734 18.8291 5.5 19 5.5H22C22.1818 5.5 22.3492 5.59864 22.4373 5.75762C22.5254 5.91659 22.5203 6.11087 22.424 6.265L12.424 22.265C12.3326 22.4112 12.1724 22.5 12 22.5C11.8276 22.5 11.6674 22.4112 11.576 22.265L1.576 6.265C1.47967 6.11087 1.47457 5.91659 1.56268 5.75762ZM2.90212 6.5L12 21.0566L21.0979 6.5H19.2745L12.4218 17.2684C12.3288 17.4146 12.1667 17.5022 11.9934 17.5C11.8201 17.4977 11.6604 17.4058 11.5713 17.2572L10.0713 14.7572C9.97311 14.5937 9.97659 14.3885 10.0802 14.2284L15.0809 6.5H2.90212Z" fill="black" fill-rule="evenodd"/></svg>