<svg xmlns="http://www.w3.org/2000/svg" viewBox="0 0 100 100" preserveAspectRatio="xMidYMid" style="shape-rendering: auto; display: block; background: rgb(255, 255, 255);" width="119" height="119" xmlns:xlink="http://www.w3.org/1999/xlink"><g><g transform="rotate(0 50 50)">
  <rect fill="#234ba8" height="12" width="6" ry="6" rx="3" y="24" x="47">
    <animate repeatCount="indefinite" begin="-0.9450171821305842s" dur="1.0309278350515465s" keyTimes="0;1" values="1;0" attributeName="opacity"></animate>
  </rect>
</g><g transform="rotate(30 50 50)">
  <rect fill="#234ba8" height="12" width="6" ry="6" rx="3" y="24" x="47">
    <animate repeatCount="indefinite" begin="-0.8591065292096219s" dur="1.0309278350515465s" keyTimes="0;1" values="1;0" attributeName="opacity"></animate>
  </rect>
</g><g transform="rotate(60 50 50)">
  <rect fill="#234ba8" height="12" width="6" ry="6" rx="3" y="24" x="47">
    <animate repeatCount="indefinite" begin="-0.7731958762886597s" dur="1.0309278350515465s" keyTimes="0;1" values="1;0" attributeName="opacity"></animate>
  </rect>
</g><g transform="rotate(90 50 50)">
  <rect fill="#234ba8" height="12" width="6" ry="6" rx="3" y="24" x="47">
    <animate repeatCount="indefinite" begin="-0.6872852233676976s" dur="1.0309278350515465s" keyTimes="0;1" values="1;0" attributeName="opacity"></animate>
  </rect>
</g><g transform="rotate(120 50 50)">
  <rect fill="#234ba8" height="12" width="6" ry="6" rx="3" y="24" x="47">
    <animate repeatCount="indefinite" begin="-0.6013745704467354s" dur="1.0309278350515465s" keyTimes="0;1" values="1;0" attributeName="opacity"></animate>
  </rect>
</g><g transform="rotate(150 50 50)">
  <rect fill="#234ba8" height="12" width="6" ry="6" rx="3" y="24" x="47">
    <animate repeatCount="indefinite" begin="-0.5154639175257731s" dur="1.0309278350515465s" keyTimes="0;1" values="1;0" attributeName="opacity"></animate>
  </rect>
</g><g transform="rotate(180 50 50)">
  <rect fill="#234ba8" height="12" width="6" ry="6" rx="3" y="24" x="47">
    <animate repeatCount="indefinite" begin="-0.42955326460481097s" dur="1.0309278350515465s" keyTimes="0;1" values="1;0" attributeName="opacity"></animate>
  </rect>
</g><g transform="rotate(210 50 50)">
  <rect fill="#234ba8" height="12" width="6" ry="6" rx="3" y="24" x="47">
    <animate repeatCount="indefinite" begin="-0.3436426116838488s" dur="1.0309278350515465s" keyTimes="0;1" values="1;0" attributeName="opacity"></animate>
  </rect>
</g><g transform="rotate(240 50 50)">
  <rect fill="#234ba8" height="12" width="6" ry="6" rx="3" y="24" x="47">
    <animate repeatCount="indefinite" begin="-0.25773195876288657s" dur="1.0309278350515465s" keyTimes="0;1" values="1;0" attributeName="opacity"></animate>
  </rect>
</g><g transform="rotate(270 50 50)">
  <rect fill="#234ba8" height="12" width="6" ry="6" rx="3" y="24" x="47">
    <animate repeatCount="indefinite" begin="-0.1718213058419244s" dur="1.0309278350515465s" keyTimes="0;1" values="1;0" attributeName="opacity"></animate>
  </rect>
</g><g transform="rotate(300 50 50)">
  <rect fill="#234ba8" height="12" width="6" ry="6" rx="3" y="24" x="47">
    <animate repeatCount="indefinite" begin="-0.0859106529209622s" dur="1.0309278350515465s" keyTimes="0;1" values="1;0" attributeName="opacity"></animate>
  </rect>
</g><g transform="rotate(330 50 50)">
  <rect fill="#234ba8" height="12" width="6" ry="6" rx="3" y="24" x="47">
    <animate repeatCount="indefinite" begin="0s" dur="1.0309278350515465s" keyTimes="0;1" values="1;0" attributeName="opacity"></animate>
  </rect>
</g><g></g></g><!-- [ldio] generated by https://loading.io --></svg>