<svg xmlns="http://www.w3.org/2000/svg" xmlns:xlink="http://www.w3.org/1999/xlink" viewBox="0,0,256,256" width="48px" height="48px"><g fill="#faf9f9" fill-rule="nonzero" stroke="none" stroke-width="1" stroke-linecap="butt" stroke-linejoin="miter" stroke-miterlimit="10" stroke-dasharray="" stroke-dashoffset="0" font-family="none" font-weight="none" font-size="none" text-anchor="none" style="mix-blend-mode: normal"><g transform="scale(5.33333,5.33333)"><path d="M42.26,22.927c0.014,0 0.027,0 0.041,0c0.427,0 0.833,-0.182 1.118,-0.5c0.294,-0.329 0.429,-0.771 0.367,-1.208c-1.23,-8.814 -8.247,-15.811 -17.063,-17.015c-0.436,-0.057 -0.869,0.073 -1.196,0.362c-0.327,0.289 -0.512,0.708 -0.507,1.144c0.178,14.249 2.756,16.824 17.24,17.217zM42.261,25.071c-14.487,0.385 -17.065,2.96 -17.241,17.219c-0.005,0.437 0.18,0.854 0.507,1.143c0.275,0.244 0.63,0.376 0.993,0.376c0.067,0 0.135,-0.004 0.203,-0.014c8.818,-1.204 15.835,-8.202 17.063,-17.017c0.062,-0.437 -0.073,-0.878 -0.367,-1.207c-0.295,-0.329 -0.721,-0.522 -1.158,-0.5zM5.736,25.063c-0.438,-0.022 -0.863,0.171 -1.156,0.5c-0.294,0.329 -0.428,0.77 -0.367,1.206c1.225,8.82 8.242,15.821 17.064,17.026c0.068,0.009 0.136,0.014 0.203,0.014c0.363,0 0.718,-0.132 0.993,-0.376c0.327,-0.289 0.512,-0.706 0.507,-1.143c-0.176,-14.282 -2.755,-16.858 -17.244,-17.227zM21.277,4.205c-8.822,1.205 -15.839,8.206 -17.064,17.026c-0.061,0.437 0.073,0.877 0.367,1.206c0.284,0.319 0.691,0.5 1.118,0.5c0.013,0 0.025,0 0.038,0c14.489,-0.369 17.068,-2.945 17.244,-17.227c0.005,-0.437 -0.18,-0.854 -0.507,-1.143c-0.326,-0.288 -0.757,-0.419 -1.196,-0.362z"></path></g></g></svg>