<?xml version="1.0" standalone="no"?>
<!DOCTYPE svg PUBLIC "-//W3C//DTD SVG 1.1//EN" "http://www.w3.org/Graphics/SVG/1.1/DTD/svg11.dtd" >
<svg xmlns="http://www.w3.org/2000/svg">
<metadata>Generated by IcoMoon</metadata>
<defs>
<font id="icomoon" horiz-adv-x="1024">
<font-face units-per-em="1024" ascent="960" descent="-64" />
<missing-glyph horiz-adv-x="1024" />
<glyph unicode="&#x20;" horiz-adv-x="512" d="" />
<glyph unicode="&#xe900;" glyph-name="all_inclusive" d="M231.039 245.333q-85.041 0-144.174 58.859-59.132 58.858-59.132 143.466t59.136 143.809 144.145 59.2q33.214 0 63.766-11.733t56.153-34.133l107.733-90.667-17.067-12.8-102.4 88.533q-22.4 18.987-50.017 29.227t-56.475 10.24q-76.080 0-129.861-53.067t-53.78-128.533 53.781-128.8q53.78-53.333 129.86-53.333 28.858 0 56.475 10.24t50.017 29.227l333.867 299.733q24.533 22.4 55.407 34.133t64.47 11.733q85.025 0 144.174-59.050t59.149-143.521q0-85.429-59.579-144.096t-145.221-58.667q-33.381 0-63.091 12.267-29.709 12.267-56.375 33.6l-106.667 91.733 17.067 12.8 102.4-89.6q22.4-20.267 50.017-29.867t56.475-9.6q76.080 0 129.861 53.067t53.78 128.533-53.78 128.8q-53.781 53.333-129.861 53.333-28.858 0-56.475-10.24t-50.017-29.227l-333.611-299.649q-24.789-23.551-55.668-34.751t-64.482-11.2z" />
<glyph unicode="&#xe901;" glyph-name="arrow_right_alt" d="M597.333 281.6l-16 13.867 141.867 141.867h-462.933v21.333h462.933l-141.867 141.867 16 13.867 166.4-166.4-166.4-166.4z" />
<glyph unicode="&#xe902;" glyph-name="bookmark" d="M311.467 172.8v578.133h401.067v-578.133l-200.533 79.289-200.533-79.289zM332.8 203.733l179.2 71.467 179.2-71.467v525.867h-358.4v-525.867zM332.8 729.6v0z" />
<glyph unicode="&#xe903;" glyph-name="camera_roll" d="M157.867 68.267v657.067h128v76.8h145.067v-76.8h128v-102.4h307.2v-452.267h-309.333v-102.4h-398.933zM179.2 89.6h358.4v102.4h307.2v409.6h-307.2v102.4h-358.4v-614.4zM433.067 253.867h51.2v51.2h-51.2v-51.2zM433.067 488.533h51.2v51.2h-51.2v-51.2zM582.4 253.867h51.2v51.2h-51.2v-51.2zM582.4 488.533h51.2v51.2h-51.2v-51.2zM731.733 253.867h51.2v51.2h-51.2v-51.2zM731.733 488.533h51.2v51.2h-51.2v-51.2z" />
<glyph unicode="&#xe904;" glyph-name="check_circle" d="M455.467 332.8l217.6 216.533-16 16-201.6-200.533-90.667 89.6-16-16 106.667-105.6zM512.186 93.867q-72.719 0-137.314 27.617-64.596 27.618-113.147 76.105-48.549 48.487-76.204 112.997t-27.654 137.229q0 73.786 27.617 137.847 27.618 64.063 76.105 112.612t112.997 76.205 137.229 27.654q73.786 0 137.847-27.617 64.063-27.618 112.612-76.105t76.205-112.464 27.654-137.762q0-72.719-27.617-137.314-27.618-64.596-76.105-113.147-48.487-48.549-112.464-76.204t-137.762-27.654zM512 115.2q138.667 0 235.733 97.067t97.067 235.733-97.067 235.733-235.733 97.067-235.733-97.067-97.067-235.733 97.067-235.733 235.733-97.067z" />
<glyph unicode="&#xe905;" glyph-name="close" d="M310.4 230.4l-16 16 201.6 201.6-201.6 201.6 16 16 201.6-201.6 201.6 201.6 16-16-201.6-201.6 201.6-201.6-16-16-201.6 201.6-201.6-201.6z" />
<glyph unicode="&#xe906;" glyph-name="comedy_mask" d="M512 282.667q41.6 0 73.067 25.067t40 66.667h-227.2q8.533-41.6 40.533-66.667t73.6-25.067zM339.2 561.067h110.933q0 23.467-16.759 40-16.761 16.533-40 16.533-23.241 0-38.707-16.693t-15.467-39.84zM573.867 562.133h110.933q0 23.467-16.226 39.467t-39.467 16-39.241-16.16-16-39.307zM512 93.867q-62.933 0-118.009 24.107t-96.427 65.458-64.925 97.493q-23.573 56.142-23.573 119.075v402.133h605.867v-402.133q0-62.933-23.573-119.075t-64.925-97.493q-41.35-41.351-96.427-65.458-55.075-24.107-118.009-24.107zM512 115.2q116.662 0 199.132 83.002 82.468 83.003 82.468 201.798v380.8h-563.2v-380.8q0-118.4 81.935-201.6t199.665-83.2z" />
<glyph unicode="&#xe907;" glyph-name="delete" d="M311.467 145.067v533.333h-51.2v21.333h149.333v38.4h204.8v-38.4h149.333v-21.333h-51.2v-533.333h-401.067zM332.8 166.4h358.4v512h-358.4v-512zM454.4 243.2h21.333v358.4h-21.333v-358.4zM548.267 243.2h21.333v358.4h-21.333v-358.4zM332.8 678.4v0z" />
<glyph unicode="&#xe908;" glyph-name="edit_square" d="M209.067 145.067v605.867h394.667l-21.333-21.333h-352v-563.2h563.2v356.267l21.333 21.333v-398.933h-605.867zM884.267 448v0zM465.067 401.067v72.533l378.667 378.667 75.733-66.133-387.2-385.067h-67.2zM884.267 784v0zM486.4 422.4h37.333l294.4 294.4-18.133 19.2-21.333 20.267-292.267-292.267v-41.6zM800 736v0 0z" />
<glyph unicode="&#xe909;" glyph-name="filter_alt" d="M516.267 196.267v231.467l-229.333 272h450.133l-229.333-272v-231.467h8.533zM512 467.2l172.8 211.2h-346.667l173.867-211.2z" />
<glyph unicode="&#xe90a;" glyph-name="heart_plus" d="M460.8 164.267l-3.2 2.133q-110.933 100.267-180.267 170.667t-106.667 121.067-50.667 88.533-13.333 74.133q0 70.4 49.067 120.533t118.4 50.133q54.4 0 102.933-29.333t83.733-85.867q35.52 56.635 82.080 85.918 46.56 29.282 100.32 29.282 67.2 0 120.533-47.467t55.467-118.933h-19.2q-3.2 57.6-45.867 101.333t-110.933 43.733q-57.6 0-93.867-30.4t-76.8-86.933h-23.467q-43.733 58.667-77.867 88t-97.067 29.333-104.533-43.2-41.6-106.133q0-34.524 13.333-70.062t50.133-83.005 101.333-113.067 168-161.6q33.067 29.867 77.333 71.467t68.8 65.067l14.933-14.933q-24.533-24.533-44.267-43.2t-42.133-40l-74.667-67.2zM765.867 296.533v115.2h-115.2v21.333h115.2v115.2h21.333v-115.2h115.2v-21.333h-115.2v-115.2h-21.333z" />
<glyph unicode="&#xe90b;" glyph-name="keyboard_arrow_down" d="M512 329.6l-217.6 217.6 16 16 201.6-201.6 201.6 201.6 16-16-217.6-217.6z" />
<glyph unicode="&#xe90c;" glyph-name="keyboard_arrow_up" d="M512 534.4l-201.6-201.6-16 16 217.6 217.6 217.6-217.6-16-16-201.6 201.6z" />
<glyph unicode="&#xe90d;" glyph-name="search" d="M809.6 136.533l-252.8 252.8q-32-25.6-70.178-38.933t-74.851-13.333q-88.817 0-151.093 62.226-62.277 62.227-62.277 150.933t62.226 151.107 150.933 62.4 151.107-62.277 62.4-151.093q0-39.873-14.4-78.051t-37.867-66.978l252.8-252.8-16-16zM411.733 358.4q81.067 0 136.533 55.467t55.467 136.533-55.467 136.533-136.533 55.467-136.533-55.467-55.467-136.533 55.467-136.533 136.533-55.467z" />
<glyph unicode="&#xe90e;" glyph-name="share" d="M742.526 66.133q-41.726 0-71.059 29.245t-29.333 71.022q0 9.891 1.6 18.278t4.8 19.055l-292.267 180.267q-12.8-19.2-32.378-27.733t-42.289-8.533q-41.778 0-71.022 29.207-29.245 29.209-29.245 70.933 0 41.726 29.245 71.059 29.244 29.333 71.022 29.333 22.4 0 42.133-9.067t32.533-27.2l292.267 180.267q-3.2 10.667-4.8 19.055t-1.6 18.278q0 41.778 29.207 71.022 29.209 29.245 70.933 29.245 41.726 0 71.059-29.207 29.333-29.209 29.333-70.933 0-41.726-29.245-71.059t-71.022-29.333q-22.711 0-42.289 8.533t-32.378 27.733l-292.267-180.267q3.2-10.667 4.8-18.979t1.6-18.133-1.6-18.354-4.8-19.2l292.267-180.267q12.8 20.267 32.378 28.267t42.289 8q41.778 0 71.022-29.207 29.245-29.209 29.245-70.933 0-41.726-29.207-71.059-29.209-29.333-70.933-29.333zM742.4 650.667q32.427 0 55.68 23.253t23.253 55.68-23.253 55.68-55.68 23.253-55.68-23.253-23.253-55.68 23.253-55.68 55.68-23.253zM281.6 369.067q32.427 0 55.68 23.253t23.253 55.68-23.253 55.68-55.68 23.253-55.68-23.253-23.253-55.68 23.253-55.68 55.68-23.253zM742.4 87.467q32.427 0 55.68 23.253t23.253 55.68-23.253 55.68-55.68 23.253-55.68-23.253-23.253-55.68 23.253-55.68 55.68-23.253z" />
<glyph unicode="&#xe90f;" glyph-name="shuffle" d="M627.2 196.267v21.333h101.333l-140.8 140.8 14.933 14.933 139.733-139.733v96h21.333v-133.333h-136.533zM276.267 196.267l-16 16 466.133 466.133h-99.2v21.333h136.533v-133.333h-21.333v96l-466.133-466.133zM414.933 530.133l-154.667 154.667 14.933 14.933 154.667-154.667-14.933-14.933z" />
<glyph unicode="&#xe910;" glyph-name="stadium" d="M234.667 652.8v119.467l119.467-59.733-119.467-59.733zM721.067 652.8v119.467l119.467-59.733-119.467-59.733zM473.6 695.467v119.467l119.467-59.733-119.467-59.733zM433.067 77.867q-65.067 3.2-117.333 12.267t-89.067 22.933-56 29.867-19.2 34.133v328.533q0 19.2 25.6 35.2t73.067 27.2 114.133 18.133 147.733 6.933 147.2-6.933 114.133-18.133 73.6-27.2 25.6-35.2v-328.533q0-18.133-19.2-34.133t-56-29.867-89.067-22.933-117.333-12.267v178.133h-157.867v-178.133zM512 439.467q98.133 0 193.6 14.933t142.4 48q-32 37.333-129.6 53.333t-206.4 16q-112 0-208-15.467t-128-53.867q46.933-33.067 130.133-48t205.867-14.933zM411.733 100.267v177.067h200.533v-177.067q83.2 5.333 148.267 24.533t90.667 46.933v307.2q-72.533-35.2-155.733-48t-183.467-12.8q-101.333 0-184 12.8t-155.2 48v-307.2q23.467-26.667 83.733-46.4t155.2-25.067z" />
<glyph unicode="&#xe911;" glyph-name="star" d="M375.467 248.533l136.533 81.067 137.6-81.067-36.267 153.6 118.4 101.333-156.8 13.867-62.933 146.133-62.933-146.133-156.8-13.867 119.467-101.333-36.267-153.6zM342.4 204.8l45.867 188.8-150.4 126.933 196.267 17.067 77.867 178.133 77.867-179.2 196.267-16-150.4-126.933 45.867-188.8-169.6 100.267-169.6-100.267z" />
<glyph unicode="&#xe912;" glyph-name="star_half" d="M649.6 248.533l-36.267 153.6 118.4 101.333-156.8 13.867-62.933 146.133v-333.867l137.6-81.067zM342.4 204.8l45.867 188.8-150.4 126.933 196.267 17.067 77.867 178.133 77.867-179.2 196.267-16-150.4-126.933 45.867-188.8-169.6 100.267-169.6-100.267z" />
<glyph unicode="&#xe913;" glyph-name="switch_left" d="M435.2 276.267l-197.333 171.733 197.333 171.733v-343.467zM418.133 308.267v279.467l-152.533-139.733 152.533-139.733zM588.8 276.267v343.467l197.333-171.733-197.333-171.733z" />
<glyph unicode="&#xe914;" glyph-name="switch_right" d="M435.2 276.267l-197.333 171.733 197.333 171.733v-343.467zM588.8 276.267v343.467l197.333-171.733-197.333-171.733zM605.867 308.267l152.533 139.733-152.533 139.733v-279.467z" />
<glyph unicode="&#xe915;" glyph-name="theater_comedy" d="M765.642 650.667q10.892 0 19.425 8.308 8.533 8.309 8.533 19.2 0 10.892-8.308 19.425t-19.2 8.533-19.425-8.308-8.533-19.2 8.308-19.425 19.2-8.533zM612.042 650.667q10.892 0 19.425 8.308 8.533 8.309 8.533 19.2 0 10.892-8.308 19.425t-19.2 8.533-19.425-8.308-8.533-19.2 8.308-19.425 19.2-8.533zM599.467 484.267h179.2q-5.333 24.533-30.699 40t-58.901 15.467q-35.669 0-61.035-15.467t-28.565-40zM335.184 93.867q-83.451 0-142.117 58.489-58.667 58.49-58.667 142.045v251.733h401.067v-251.733q0-83.555-58.416-142.045t-141.867-58.489zM334.933 115.2q74.667 0 126.933 52.267t52.267 126.933v230.4h-358.4v-230.4q0-74.667 52.267-126.933t126.933-52.267zM689.067 349.867q-27.359 0-56.88 8t-47.653 22.933l2.133 23.467q20.69-18.133 46.448-25.6t55.952-7.467q74.667 0 126.933 52.267t52.267 126.933v230.4h-358.4v-183.467h-21.333v204.8h401.067v-251.733q0-83.555-58.489-142.045t-142.045-58.489zM257.908 394.667q10.892 0 19.425 8.308t8.533 19.2-8.308 19.425q-8.309 8.533-19.2 8.533-10.892 0-19.425-8.308t-8.533-19.2 8.308-19.425q8.309-8.533 19.2-8.533zM411.508 394.667q10.892 0 19.425 8.308t8.533 19.2-8.308 19.425q-8.309 8.533-19.2 8.533-10.892 0-19.425-8.308t-8.533-19.2 8.308-19.425q8.309-8.533 19.2-8.533zM334.933 228.267q35.669 0 61.035 15.467t28.565 40h-179.2q3.2-24.533 28.565-40t61.035-15.467z" />
<glyph unicode="&#xe916;" glyph-name="theaters" d="M232.533 117.333v661.333h21.333v-76.8h132.267v76.8h251.733v-76.8h132.267v76.8h21.333v-661.333h-21.333v76.8h-132.267v-76.8h-251.733v76.8h-132.267v-76.8h-21.333zM253.867 215.467h132.267v140.8h-132.267v-140.8zM253.867 377.6h132.267v140.8h-132.267v-140.8zM253.867 539.733h132.267v140.8h-132.267v-140.8zM637.867 215.467h132.267v140.8h-132.267v-140.8zM637.867 377.6h132.267v140.8h-132.267v-140.8zM637.867 539.733h132.267v140.8h-132.267v-140.8zM407.467 138.667h209.067v618.667h-209.067v-618.667zM407.467 757.333v0z" />
<glyph unicode="&#xe917;" glyph-name="today" d="M409.84 266.667q-33.307 0-57.307 23.76t-24 57.067 23.76 57.307 57.067 24 57.307-23.76 24-57.067-23.76-57.307-57.067-24zM209.067 93.867v605.867h174.933v115.2h25.6v-115.2h209.067v115.2h21.333v-115.2h174.933v-605.867h-605.867zM230.4 115.2h563.2v349.867h-563.2v-349.867zM230.4 486.4h563.2v192h-563.2v-192zM230.4 486.4v0z" />
<glyph unicode="&#xe918;" glyph-name="video_library" d="M486.4 396.8l202.667 128-202.667 128v-256zM283.733 247.467v554.667h554.667v-554.667h-554.667zM305.067 268.8h512v512h-512v-512zM185.6 149.333v520.533h21.333v-499.2h499.2v-21.333h-520.533zM305.067 780.8v0z" />
<glyph unicode="&#xe919;" glyph-name="favorite" d="M512 164.267l-14.933 13.867q-102.4 92.8-169.067 157.333t-104 112-51.733 84.8-14.4 74.667q0 70.4 49.6 120t120 49.6q53.333 0 101.333-29.333t83.2-85.867q35.2 56.533 83.2 85.867t101.333 29.333q70.4 0 120-49.6t49.6-120q0-37.333-13.867-73.6t-51.2-83.2-104-112.533-172.267-161.6l-12.8-11.733zM512 193.067q99.2 89.6 163.2 152.533t101.867 109.333 52.8 82.133 14.933 69.867q0 62.933-42.667 105.6t-105.6 42.667q-38.4 0-71.467-16.533t-80-63.467l-37.333-43.733h8.533l-37.333 43.733q-48 48-81.6 64t-69.867 16q-61.867 0-105.067-42.667t-43.2-105.6q0-34.133 13.867-68.267t50.667-80 101.333-108.8 166.933-156.8z" />
<glyph unicode="&#xe91a;" glyph-name="filter_alt_off" d="M567.467 500.267l-14.933 16 133.333 162.133h-295.467l-21.333 21.333h368l-169.6-199.467zM822.4 106.667l-314.667 314.667v-225.067h8.533v216.533l-345.6 345.6 16 14.933 650.667-650.667-14.933-16z" />
<glyph unicode="&#xe91b;" glyph-name="heart_minus" d="M460.8 164.267l-3.2 2.133q-110.933 100.267-180.267 170.667t-106.667 121.067-50.667 88.533-13.333 74.133q0 70.4 49.067 120.533t118.4 50.133q54.4 0 102.933-29.333t83.733-85.867q35.52 56.635 82.080 85.918 46.56 29.282 100.32 29.282 75.733 0 123.2-50.667t47.467-117.867q0-23.467-4.267-45.867t-14.933-45.867h-24.533q12.8 25.6 17.6 47.838t4.8 41.762q0 67.2-45.867 108.267t-103.467 41.067-93.867-30.4-76.8-86.933h-23.467q-43.733 58.667-77.867 88t-97.067 29.333-104.533-43.2-41.6-106.133q0-34.524 13.333-70.062t50.133-83.005 101.333-113.067 168-161.6q33.067 29.867 77.333 71.467t68.8 65.067l14.933-14.933q-24.533-24.533-44.267-43.2t-42.133-40l-74.667-67.2zM650.667 411.733v21.333h251.733v-21.333h-251.733z" />
<glyph unicode="&#xe91c;" glyph-name="troubleshoot" d="M894.933 94.933l-249.6 249.6q-43.733-36.267-87.467-54.933t-102.4-18.667q-87.467 0-158.4 49.067t-98.667 128h17.067q32-69.333 96.533-112.533t143.467-43.2q106.667 0 182.4 75.733t75.733 182.4-75.733 182.4-182.4 75.733q-94.933 0-164.267-59.733t-87.467-147.2h-23.467q18.133 98.133 94.4 163.2t180.8 65.067q116.267 0 197.867-81.6t81.6-197.867q0-57.6-18.133-101.867t-54.4-88l247.467-248.533-14.933-17.067zM421.333 413.867l-67.2 264.533-43.733-162.133h-247.467v17.067h230.4l38.4 153.6h41.6l69.333-274.133 59.733 171.733h35.2l51.2-102.4h39.467v-17.067h-50.133l-59.733 119.467-57.6-170.667h-39.467z" />
<glyph unicode="&#xe91d;" glyph-name="sentiment_dissatisfied" d="M642.384 494.933q17.883 0 30.149 12.517 12.267 12.518 12.267 30.4 0 17.883-12.517 30.149t-30.4 12.267-30.149-12.517-12.267-30.4 12.517-30.149 30.4-12.267zM382.117 494.933q17.883 0 30.149 12.517t12.267 30.4-12.517 30.149-30.4 12.267-30.149-12.517-12.267-30.4 12.517-30.149 30.4-12.267zM512.108 396.8q-58.774 0-108.908-32t-71.467-87.467h48q21.244 35.52 56.489 56.16t75.778 20.64 75.778-20.64 56.489-56.16h48q-21.333 55.467-71.359 87.467t-108.8 32zM512.48 93.867q-73.013 0-137.609 27.617-64.596 27.618-113.147 76.105-48.549 48.487-76.204 112.953-27.654 64.466-27.654 137.762t27.617 137.359q27.618 64.063 76.105 112.612t112.953 76.205q64.466 27.654 137.762 27.654 73.297 0 137.359-27.617t112.612-76.105q48.55-48.487 76.205-112.703 27.654-64.217 27.654-137.229t-27.617-137.609q-27.618-64.596-76.105-113.147-48.487-48.549-112.703-76.204t-137.229-27.654zM512 115.2q138.667 0 235.733 97.067t97.067 235.733-97.067 235.733-235.733 97.067-235.733-97.067-97.067-235.733 97.067-235.733 235.733-97.067z" />
<glyph unicode="&#xe91e;" glyph-name="sentiment_very_satisfied" d="M512 277.333q49.067 0 92.8 23.467t73.6 65.067h-332.8q29.867-41.6 73.6-65.067t92.8-23.467zM347.733 519.467l36.267 38.4 38.4-38.4 12.8 12.8-51.2 49.067-49.067-49.067 12.8-12.8zM601.6 519.467l38.4 38.4 36.267-38.4 12.8 12.8-49.067 49.067-51.2-49.067 12.8-12.8zM512.186 93.867q-72.719 0-137.314 27.617-64.596 27.618-113.147 76.105-48.549 48.487-76.204 112.997t-27.654 137.229q0 73.786 27.617 137.847 27.618 64.063 76.105 112.612t112.997 76.205 137.229 27.654q73.786 0 137.847-27.617 64.063-27.618 112.612-76.105t76.205-112.464 27.654-137.762q0-72.719-27.617-137.314-27.618-64.596-76.105-113.147-48.487-48.549-112.464-76.204t-137.762-27.654zM512 115.2q138.667 0 235.733 97.067t97.067 235.733-97.067 235.733-235.733 97.067-235.733-97.067-97.067-235.733 97.067-235.733 235.733-97.067z" />
<glyph unicode="&#xe91f;" glyph-name="task_alt" d="M512.186 93.867q-72.719 0-137.314 27.617-64.596 27.618-113.147 76.105-48.549 48.487-76.204 112.997t-27.654 137.229q0 73.786 27.632 137.847 27.632 64.063 76.144 112.612t113.056 76.205 137.301 27.654q62.22 0 118.577-20.267t102.223-57.6l-14.933-14.933q-41.6 35.2-94.694 53.333t-111.172 18.133q-138.667 0-235.733-97.067t-97.067-235.733 97.067-235.733 235.733-97.067 235.733 97.067 97.067 235.733q0 30.933-5.333 60.045t-14.933 57.289l14.933 16q13.867-30.933 20.267-64.431t6.4-68.902q0-72.757-27.617-137.301-27.618-64.544-76.105-113.056t-112.464-76.144-137.762-27.632zM451.2 301.867l-133.333 133.333 17.067 17.067 117.333-117.333 397.867 396.8 16-16-414.933-413.867z" />
<glyph unicode="&#xe920;" glyph-name="attach_money" d="M499.2 117.333v78.933q-52.267 4.267-89.067 34.667t-52.8 70.933l27.733 12.8q11.733-34.133 47.467-63.467t78.4-29.333q48 0 87.467 27.2t39.467 77.333q0 42.667-32 71.467t-87.467 48q-71.467 26.667-109.333 54.4t-37.867 80q0 40.533 35.733 75.2t92.267 43.2v80h21.333v-80q65.067-7.467 87.467-40t29.867-26.133l-21.333-11.733q-11.733 19.2-41.6 37.333t-61.867 18.133q-40.533 0-77.333-26.133t-36.8-67.733q0-33.067 21.333-58.133t100.267-54.933q80-28.8 112.533-58.133t32.533-86.933q0-45.867-40-85.333t-105.067-43.733v-77.867h-21.333z" />
<glyph unicode="&#xe921;" glyph-name="bubble" d="M512 832q78.933 0 148.8-30.4t122.133-82.667 82.667-122.133 30.4-148.8-30.4-148.8-82.667-122.133-122.133-82.667-148.8-30.4q-43.733 0-84.267 9.6t-81.067 27.733l65.067 65.067q24.533-8.533 49.6-12.8t50.667-4.267q123.733 0 211.2 87.467t87.467 211.2-87.467 211.2-211.2 87.467-211.2-87.467-87.467-211.2q0-25.6 4.267-50.667t12.8-49.6l-64-64q-19.2 38.4-28.8 79.467t-9.6 84.8q0 78.933 30.4 148.8t82.667 122.133 122.133 82.667 148.8 30.4zM554.667 277.333v153.6l-366.933-366.933-59.733 59.733 366.933 366.933h-153.6v85.333h298.667v-298.667h-85.333z" />
<glyph unicode="&#xe922;" d="M170.667 960h682.667c94.257 0 170.667-76.41 170.667-170.667v-682.667c0-94.257-76.41-170.667-170.667-170.667h-682.667c-94.257 0-170.667 76.41-170.667 170.667v682.667c0 94.257 76.41 170.667 170.667 170.667z" />
<glyph unicode="&#xe923;" d="M841.062 765.013l-682.257-255.863c-13.126-5.014-22.279-17.501-22.279-32.127 0-14.063 8.462-26.15 20.573-31.445l0.221-0.086 161.638-69.274 339.627 226.441c1.46 1.203 3.35 1.933 5.41 1.933 4.715 0 8.538-3.822 8.538-8.538 0-2.655-1.212-5.027-3.113-6.593l-0.015-0.012-247.467-247.467v-171.622l102.929 102.929 163.84-136.533c5.904-4.948 13.583-7.953 21.963-7.953 15.994 0 29.431 10.945 33.23 25.754l0.052 0.238 142.455 569.685c0.664 2.523 1.045 5.419 1.045 8.405 0 18.955-15.366 34.321-34.321 34.321-4.337 0-8.485-0.804-12.305-2.272l0.235 0.079z" />
<glyph unicode="&#xe924;" d="M710.554 103.134c-14.604 0.012-27.977 5.274-38.336 14l0.090-0.074-145.903 121.583-86.409-86.391c-4.632-4.626-11.027-7.487-18.091-7.487-14.131 0-25.587 11.449-25.6 25.576v171.555c0 0.003 0 0.008 0 0.012 0 7.066 2.863 13.464 7.492 18.096l125.986 125.986-196.625-131.072c-3.99-2.693-8.907-4.299-14.2-4.299-3.639 0-7.1 0.759-10.234 2.128l0.165-0.064-161.638 69.274c-21.535 9.397-36.314 30.505-36.314 55.064 0 25.529 15.97 47.329 38.464 55.953l0.41 0.138 682.274 255.863c6.243 2.41 13.467 3.807 21.017 3.807 33.093 0 59.921-26.828 59.921-59.921 0-5.152-0.65-10.152-1.873-14.923l0.090 0.415-142.455-569.805c-5.091-20.144-19.943-35.95-39.106-42.29l-0.421-0.121c-5.583-1.889-12.013-2.987-18.697-3.004h-0.008zM524.834 298.889c6.252-0.003 11.98-2.247 16.424-5.972l-0.040 0.032 163.84-136.533c1.494-1.27 3.446-2.043 5.578-2.043 0.972 0 1.906 0.161 2.778 0.456l-0.061-0.018c2.865 0.918 5.037 3.231 5.739 6.12l0.012 0.058 142.438 569.788c0.161 0.625 0.253 1.343 0.253 2.082 0 4.807-3.897 8.704-8.704 8.704-1.090 0-2.133-0.2-3.094-0.566l0.060 0.020-682.274-255.829c-3.328-1.279-5.648-4.449-5.648-8.162 0-3.576 2.153-6.65 5.233-7.996l0.056-0.022 148.873-63.795 328.124 218.743c5.39 3.728 12.067 5.955 19.263 5.955 18.851 0 34.133-15.282 34.133-34.133 0-9.568-3.937-18.217-10.28-24.415l-240.032-240.066v-99.14l59.221 59.221c4.633 4.638 11.035 7.508 18.107 7.509v0zM841.062 764.996v0z" />
<glyph unicode="&#xe925;" d="M158.805 483.55c-14.055 0.11-25.405 11.529-25.405 25.599 0 10.834 6.73 20.096 16.237 23.834l0.174 0.060 682.274 255.932c6.243 2.41 13.467 3.807 21.017 3.807 33.093 0 59.921-26.828 59.921-59.921 0-5.152-0.65-10.152-1.873-14.923l0.090 0.415c-2.871-11.234-12.901-19.406-24.841-19.406-14.139 0-25.601 11.462-25.601 25.601 0 2.2 0.278 4.335 0.799 6.373l-0.039-0.177c0.156 0.617 0.246 1.326 0.246 2.055 0 4.817-3.905 8.721-8.721 8.721-1.081 0-2.115-0.197-3.070-0.556l0.060 0.020-682.291-255.795c-2.653-1.037-5.725-1.638-8.937-1.638-0.014 0-0.029 0-0.043 0h0.002z" />
<glyph unicode="&#xe926;" d="M938.667 448c0-235.641-191.025-426.667-426.667-426.667s-426.667 191.025-426.667 426.667c0 235.641 191.025 426.667 426.667 426.667s426.667-191.025 426.667-426.667z" />
<glyph unicode="&#xe927;" d="M512 657.873c68.354 0 76.452-0.26 103.445-1.491 24.96-1.139 38.515-5.31 47.537-8.815 11.949-4.644 20.476-10.191 29.434-19.149 8.96-8.96 14.507-17.487 19.151-29.436 3.505-9.022 7.676-22.577 8.815-47.535 1.231-26.995 1.491-35.091 1.491-103.445 0-68.356-0.26-76.452-1.491-103.447-1.139-24.96-5.31-38.513-8.815-47.535-4.644-11.949-10.191-20.478-19.149-29.436-8.96-8.958-17.487-14.505-29.436-19.149-9.022-3.507-22.577-7.676-47.537-8.815-26.989-1.231-35.085-1.493-103.445-1.493s-76.454 0.262-103.445 1.493c-24.96 1.139-38.515 5.308-47.537 8.815-11.949 4.644-20.476 10.191-29.434 19.149s-14.507 17.487-19.151 29.436c-3.505 9.022-7.676 22.575-8.815 47.535-1.231 26.995-1.491 35.091-1.491 103.447 0 68.354 0.26 76.45 1.491 103.445 1.139 24.958 5.31 38.513 8.815 47.535 4.644 11.949 10.191 20.476 19.151 29.434 8.958 8.96 17.485 14.507 29.434 19.151 9.022 3.505 22.577 7.676 47.537 8.815 26.993 1.231 35.091 1.491 103.445 1.491zM512 704c-69.525 0-78.244-0.294-105.549-1.54-27.247-1.244-45.858-5.57-62.142-11.9-16.834-6.541-31.11-15.294-45.342-29.527-14.234-14.231-22.987-28.508-29.527-45.342-6.33-16.284-10.656-34.893-11.9-62.142-1.246-27.305-1.54-36.023-1.54-105.547 0-69.527 0.294-78.244 1.54-105.549 1.244-27.249 5.57-45.858 11.9-62.142 6.541-16.834 15.294-31.11 29.527-45.344 14.231-14.231 28.508-22.985 45.342-29.525 16.284-6.33 34.895-10.656 62.142-11.9 27.305-1.246 36.023-1.54 105.549-1.54s78.244 0.294 105.549 1.54c27.247 1.244 45.858 5.57 62.142 11.9 16.834 6.541 31.11 15.294 45.342 29.525 14.231 14.234 22.987 28.51 29.527 45.344 6.33 16.284 10.656 34.893 11.9 62.142 1.246 27.305 1.54 36.021 1.54 105.549 0 69.523-0.294 78.242-1.54 105.547-1.244 27.249-5.57 45.858-11.9 62.142-6.541 16.834-15.296 31.11-29.527 45.342-14.231 14.234-28.508 22.987-45.342 29.527-16.284 6.33-34.895 10.656-62.142 11.9-27.305 1.246-36.023 1.54-105.549 1.54z" />
<glyph unicode="&#xe928;" d="M512.126 579.343c-72.604 0-131.458-58.854-131.458-131.458s58.854-131.458 131.458-131.458c72.604 0 131.46 58.854 131.46 131.458s-58.857 131.458-131.46 131.458zM512.126 362.551c-47.127 0-85.333 38.206-85.333 85.333s38.206 85.333 85.333 85.333c47.13 0 85.333-38.206 85.333-85.333s-38.204-85.333-85.333-85.333z" />
<glyph unicode="&#xe929;" d="M679.482 584.612c0-16.964-13.754-30.72-30.72-30.72s-30.72 13.756-30.72 30.72c0 16.966 13.754 30.722 30.72 30.722s30.72-13.756 30.72-30.722z" />
<glyph unicode="&#xe92a;" d="M994-64h-964c-16.568 0-30 13.432-30 30v964c0 16.568 13.432 30 30 30h964c16.568 0 30-13.432 30-30v-964c0-16.568-13.432-30-30-30z" />
<glyph unicode="&#xe92b;" d="M994 960h-482v-1024h482c16.568 0 30 13.432 30 30v964c0 16.568-13.432 30-30 30z" />
<glyph unicode="&#xe92c;" d="M512 127.674c-10.606 0-20.422 5.6-25.822 14.726l-343.434 580.652c-5.486 9.276-5.576 20.778-0.238 30.136 5.338 9.36 15.286 15.136 26.060 15.136h160.986l35.562-12.71 35.398 12.71h454.926c10.774 0 20.722-5.778 26.060-15.136 5.338-9.36 5.248-20.862-0.238-30.136l-227.928-385.356-34.412-6.734-1.444-53.89-79.654-134.672c-5.4-9.126-15.216-14.726-25.822-14.726z" />
<glyph unicode="&#xe92d;" d="M881.496 753.19c-5.338 9.36-15.286 15.136-26.060 15.136h-343.436v-640.652c10.606 0 20.422 5.6 25.822 14.726l79.654 134.672 1.444 53.89 34.412 6.734 227.924 385.356c5.486 9.276 5.578 20.778 0.24 30.138z" />
<glyph unicode="&#xe92e;" d="M617.476 277.074l35.856 60.622-252.822 430.63h-70.96z" />
<glyph unicode="&#xe92f;" d="M512 578.426v-121.392l105.476-179.96 35.856 60.622z" />
<glyph unicode="&#xe930;" glyph-name="dzen" d="M960.389 468.767c0.082 0 0.143 0 0.225 0 5.714 0 11.162 2.396 15.032 6.595 3.932 4.26 5.878 9.974 5.366 15.749-20.562 226.161-199.619 405.279-425.8 425.882-5.734 0.451-11.51-1.413-15.77-5.366-4.26-3.932-6.636-9.482-6.574-15.278 3.564-300.564 43.213-423.383 427.52-427.581zM960.389 427.233c-384.307-4.198-423.936-127.017-427.5-427.581-0.061-5.796 2.314-11.346 6.574-15.278 3.809-3.502 8.786-5.448 13.906-5.448 0.614 0 1.249 0.020 1.864 0.082 226.181 20.603 405.238 199.7 425.779 425.882 0.512 5.775-1.413 11.489-5.366 15.749s-9.462 6.369-15.258 6.595zM467.415 916.89c-225.464-21.197-403.948-200.274-424.407-425.82-0.512-5.775 1.413-11.489 5.366-15.749 3.871-4.198 9.339-6.574 15.032-6.574 0.082 0 0.164 0 0.246 0 383.037 4.403 422.584 127.16 426.189 427.52 0.061 5.796-2.335 11.366-6.595 15.299-4.301 3.932-10.056 5.857-15.831 5.325zM63.631 427.254c-6.369 0.717-11.366-2.314-15.278-6.574-3.932-4.26-5.878-9.974-5.366-15.749 20.46-225.546 198.963-404.623 424.428-425.82 0.635-0.061 1.29-0.082 1.925-0.082 5.12 0 10.076 1.925 13.885 5.427 4.26 3.932 6.656 9.503 6.595 15.299-3.604 300.339-43.131 423.096-426.189 427.5z" />
</font>
</defs>
</svg>
